<svg width="25" height="26" viewBox="0 0 25 26" fill="none" xmlns="http://www.w3.org/2000/svg">
<path d="M12.504 7.25C11.3656 7.25 10.2527 7.58723 9.30615 8.21905C8.35958 8.85087 7.62181 9.74889 7.18615 10.7996C6.7505 11.8502 6.63651 13.0064 6.85861 14.1218C7.0807 15.2372 7.62891 16.2617 8.4339 17.0659C9.23889 17.87 10.2645 18.4177 11.3811 18.6395C12.4976 18.8614 13.655 18.7475 14.7067 18.3123C15.7585 17.8771 16.6575 17.1401 17.29 16.1945C17.9224 15.2489 18.26 14.1372 18.26 13C18.26 11.475 17.6536 10.0125 16.5741 8.93414C15.4947 7.8558 14.0306 7.25 12.504 7.25ZM12.504 17.25C11.6626 17.25 10.84 17.0007 10.1404 16.5337C9.44073 16.0668 8.89543 15.403 8.57342 14.6264C8.25141 13.8498 8.16716 12.9953 8.33132 12.1709C8.49548 11.3464 8.90067 10.5892 9.49567 9.9948C10.0907 9.40042 10.8487 8.99565 11.674 8.83166C12.4993 8.66768 13.3547 8.75184 14.1321 9.07351C14.9095 9.39518 15.574 9.93992 16.0415 10.6388C16.5089 11.3377 16.7585 12.1594 16.7585 13C16.7552 14.1262 16.3059 15.2052 15.5087 16.0016C14.7116 16.7979 13.6313 17.2467 12.504 17.25ZM18.0098 0.75H6.99827C5.20618 0.75 3.4875 1.46116 2.22031 2.72703C0.953113 3.9929 0.241211 5.70979 0.241211 7.5V18.5C0.241211 20.2902 0.953113 22.0071 2.22031 23.273C3.4875 24.5388 5.20618 25.25 6.99827 25.25H18.0098C19.8018 25.25 21.5205 24.5388 22.7877 23.273C24.0549 22.0071 24.7668 20.2902 24.7668 18.5V7.5C24.7668 5.70979 24.0549 3.9929 22.7877 2.72703C21.5205 1.46116 19.8018 0.75 18.0098 0.75ZM23.2653 18.5C23.2653 19.8924 22.7115 21.2277 21.726 22.2123C20.7404 23.1969 19.4036 23.75 18.0098 23.75H6.99827C5.60442 23.75 4.26767 23.1969 3.28208 22.2123C2.29648 21.2277 1.74278 19.8924 1.74278 18.5V7.5C1.74278 6.10761 2.29648 4.77225 3.28208 3.78769C4.26767 2.80312 5.60442 2.25 6.99827 2.25H18.0098C19.4036 2.25 20.7404 2.80312 21.726 3.78769C22.7115 4.77225 23.2653 6.10761 23.2653 7.5V18.5ZM20.2621 6.5C20.2621 6.74723 20.1887 6.9889 20.0512 7.19446C19.9137 7.40002 19.7183 7.56024 19.4897 7.65485C19.261 7.74946 19.0094 7.77421 18.7667 7.72598C18.524 7.67775 18.301 7.5587 18.126 7.38388C17.951 7.20907 17.8318 6.98634 17.7835 6.74386C17.7353 6.50139 17.76 6.25005 17.8548 6.02165C17.9495 5.79324 18.1098 5.59801 18.3156 5.46066C18.5214 5.32331 18.7633 5.25 19.0108 5.25C19.3427 5.25 19.661 5.3817 19.8956 5.61612C20.1303 5.85054 20.2621 6.16848 20.2621 6.5Z" fill="#070B02"/>
</svg>
