<svg width="27" height="25" viewBox="0 0 27 25" fill="none" xmlns="http://www.w3.org/2000/svg">
<path d="M26.2091 1.16248C25.9673 0.953195 25.673 0.813557 25.3578 0.758511C25.0426 0.703464 24.7183 0.73508 24.4198 0.849976L1.32064 9.91248C0.966214 10.0496 0.666064 10.2982 0.465475 10.6208C0.264886 10.9433 0.174742 11.3222 0.208645 11.7004C0.242547 12.0786 0.398656 12.4355 0.653417 12.7173C0.908179 12.999 1.24777 13.1904 1.62095 13.2625L7.68979 14.475V22C7.6902 22.3448 7.79255 22.6817 7.98401 22.9686C8.17546 23.2555 8.44747 23.4795 8.76591 23.6125C8.98063 23.6999 9.20978 23.7465 9.44162 23.75C9.67188 23.7514 9.9001 23.7068 10.1128 23.6187C10.3256 23.5307 10.5186 23.4011 10.6804 23.2375L14.0965 19.825L19.2018 24.3125C19.518 24.5957 19.9283 24.7516 20.353 24.75C20.536 24.7515 20.718 24.7219 20.8911 24.6625C21.18 24.5707 21.4397 24.4046 21.644 24.1808C21.8483 23.9569 21.9899 23.6833 22.0548 23.3875L26.7722 2.87498C26.8427 2.56536 26.8275 2.24241 26.7284 1.94073C26.6292 1.63906 26.4497 1.37003 26.2091 1.16248ZM1.72106 11.5625C1.71231 11.5098 1.72261 11.4557 1.75012 11.4099C1.77763 11.3641 1.82055 11.3296 1.87121 11.3125L21.2039 3.72498L8.26539 13.0625L1.92126 11.7875C1.86597 11.7813 1.81491 11.7549 1.77794 11.7134C1.74098 11.6718 1.72071 11.6181 1.72106 11.5625ZM9.6168 22.175C9.5821 22.2113 9.53676 22.2357 9.4873 22.2447C9.43784 22.2537 9.3868 22.2468 9.34151 22.225C9.29752 22.2058 9.25998 22.1744 9.23335 22.1345C9.20673 22.0946 9.19215 22.0479 9.19135 22V15.5125L12.9578 18.8375L9.6168 22.175ZM20.6033 23.05C20.5947 23.0933 20.5748 23.1337 20.5456 23.1668C20.5163 23.2 20.4788 23.2248 20.4369 23.2388C20.3949 23.2528 20.35 23.2554 20.3067 23.2464C20.2634 23.2374 20.2232 23.217 20.1903 23.1875L9.64183 13.9125L25.2832 2.63748L20.6033 23.05Z" fill="#070B02"/>
</svg>
