<svg width="24" height="24" viewBox="0 0 24 24" fill="none" xmlns="http://www.w3.org/2000/svg">
<path d="M21.7406 19.875C20.3412 17.4642 18.1012 15.6548 15.45 14.7937C16.7208 14.0381 17.7083 12.8861 18.2608 11.5148C18.8134 10.1434 18.9005 8.62862 18.5086 7.20303C18.1168 5.77743 17.2677 4.51992 16.0919 3.62367C14.916 2.72742 13.4785 2.242 12 2.242C10.5215 2.242 9.08397 2.72742 7.90813 3.62367C6.73229 4.51992 5.88323 5.77743 5.49139 7.20303C5.09955 8.62862 5.18659 10.1434 5.73916 11.5148C6.29172 12.8861 7.27924 14.0381 8.55001 14.7937C5.89885 15.6548 3.65882 17.4642 2.25938 19.875C2.20068 19.9601 2.16023 20.0565 2.14057 20.158C2.12091 20.2596 2.12246 20.3641 2.14513 20.465C2.16779 20.5659 2.21109 20.661 2.27229 20.7444C2.33349 20.8278 2.41127 20.8976 2.50074 20.9495C2.59022 21.0014 2.68946 21.0342 2.79222 21.0458C2.89499 21.0575 2.99906 21.0478 3.09789 21.0173C3.19672 20.9869 3.28818 20.9363 3.36653 20.8687C3.44487 20.8012 3.5084 20.7182 3.55313 20.625C4.41036 19.1437 5.64205 17.9139 7.12464 17.0589C8.60722 16.204 10.2886 15.7539 12 15.7539C13.7114 15.7539 15.3928 16.204 16.8754 17.0589C18.358 17.9139 19.5896 19.1437 20.4469 20.625C20.4916 20.7182 20.5551 20.8012 20.6335 20.8687C20.7118 20.9363 20.8033 20.9869 20.9021 21.0173C21.001 21.0478 21.105 21.0575 21.2078 21.0458C21.3106 21.0342 21.4098 21.0014 21.4993 20.9495C21.5887 20.8976 21.6665 20.8278 21.7277 20.7444C21.7889 20.661 21.8322 20.5659 21.8549 20.465C21.8776 20.3641 21.8791 20.2596 21.8594 20.158C21.8398 20.0565 21.7993 19.9601 21.7406 19.875V19.875ZM6.75001 8.99998C6.75001 7.96163 7.05791 6.94659 7.63479 6.08323C8.21167 5.21988 9.03161 4.54697 9.99092 4.14961C10.9502 3.75225 12.0058 3.64828 13.0242 3.85086C14.0426 4.05343 14.9781 4.55344 15.7123 5.28767C16.4465 6.02189 16.9466 6.95735 17.1491 7.97575C17.3517 8.99415 17.2477 10.0498 16.8504 11.0091C16.453 11.9684 15.7801 12.7883 14.9167 13.3652C14.0534 13.9421 13.0384 14.25 12 14.25C10.6076 14.25 9.27226 13.6969 8.2877 12.7123C7.30313 11.7277 6.75001 10.3924 6.75001 8.99998Z" fill="white"/>
</svg>
